<?xml version="1.0" encoding="utf-8"?>
<!-- Generator: Adobe Illustrator 25.4.1, SVG Export Plug-In . SVG Version: 6.00 Build 0)  -->
<svg version="1.1" id="Layer_1" xmlns="http://www.w3.org/2000/svg" xmlns:xlink="http://www.w3.org/1999/xlink" x="0px" y="0px"
	 viewBox="0 0 300 300" style="enable-background:new 0 0 300 300;" xml:space="preserve">
<style type="text/css">
	.st0{fill:#69995D;}
</style>
<path class="st0" d="M150.2,300c-14.3-29.4-28.7-58.7-43.4-88.9c9.8,0,18.8,0,28,0c0-15.4,0-30.2,0-45.3c-14.9,0-29.8,0-45.1,0
	c0,9,0,17.9,0,28C59.6,179.2,30.4,165,0,150.2c30.1-14.7,59.4-28.9,89.3-43.5c0,9.7,0,18.6,0,27.8c15.3,0,30.2,0,45.4,0
	c0-14.9,0-29.6,0-45c-9,0-18.1,0-28,0c14.6-30.1,28.8-59.3,43.5-89.6c14.6,30.1,28.9,59.3,43.4,89.3c-9.7,0-18.6,0-27.8,0
	c0,15.3,0,30.2,0,45.4c14.9,0,29.6,0,45,0c0-9,0-18,0-27.9c2.6,1.2,4.3,2,6.1,2.8c26,12.6,52.1,25.3,78.1,37.9
	c1.6,0.8,3.4,1.1,5.1,1.7c0,0.7,0,1.3,0,2c-1.7,0.6-3.5,1-5.1,1.8c-26,12.6-52.1,25.3-78.1,37.9c-1.7,0.8-3.5,1.6-6.1,2.8
	c0-9.9,0-19,0-28c-15.4,0-30.1,0-45,0c0,15.2,0,30,0,45.3c9.2,0,18.2,0,27.6,0c-0.9,2.2-1.6,3.9-2.4,5.5
	c-11.4,23.5-22.9,46.9-34.2,70.4c-2.1,4.3-3.8,8.8-5.7,13.2C150.8,300,150.5,300,150.2,300z"/>
</svg>
